<svg height="512pt" viewBox="0 -21 512 512" width="512pt" xmlns="http://www.w3.org/2000/svg"><path d="m256 330.667969c-29.398438 0-53.332031-23.914063-53.332031-53.335938 0-29.394531 23.933593-53.332031 53.332031-53.332031s53.332031 23.9375 53.332031 53.332031c0 29.421875-23.933593 53.335938-53.332031 53.335938zm0-74.667969c-11.753906 0-21.332031 9.558594-21.332031 21.332031 0 11.777344 9.578125 21.335938 21.332031 21.335938s21.332031-9.558594 21.332031-21.335938c0-11.773437-9.578125-21.332031-21.332031-21.332031zm0 0"/><path d="m346.667969 384h-181.335938c-20.585937 0-37.332031-16.746094-37.332031-37.332031v-101.335938c0-20.585937 16.746094-37.332031 37.332031-37.332031h16c1.664063 0 3.265625-.789062 4.246094-2.113281l20.097656-22.675781c7.101563-7.980469 17.257813-12.542969 27.902344-12.542969h44.84375c10.644531 0 20.820313 4.5625 27.902344 12.519531l19.242187 21.65625c1.835938 2.367188 3.4375 3.15625 5.101563 3.15625h16c20.585937 0 37.332031 16.746094 37.332031 37.332031v101.335938c0 20.585937-16.746094 37.332031-37.332031 37.332031zm-181.335938-144c-2.941406 0-5.332031 2.390625-5.332031 5.332031v101.335938c0 2.941406 2.390625 5.332031 5.332031 5.332031h181.335938c2.941406 0 5.332031-2.390625 5.332031-5.332031v-101.335938c0-2.941406-2.390625-5.332031-5.332031-5.332031h-16c-11.714844 0-22.871094-5.589844-29.867188-14.953125l-18.390625-20.609375c-1.003906-1.128906-2.472656-1.769531-3.988281-1.769531h-44.84375c-1.515625 0-2.984375.660156-4.011719 1.789062l-19.21875 21.632813c-6.144531 8.320312-17.324218 13.910156-29.015625 13.910156zm0 0"/><path d="m453.332031 469.332031h-394.664062c-32.363281 0-58.667969-26.300781-58.667969-58.664062v-352c0-32.363281 26.304688-58.667969 58.667969-58.667969h394.664062c32.363281 0 58.667969 26.304688 58.667969 58.667969v352c0 32.363281-26.304688 58.664062-58.667969 58.664062zm-394.664062-437.332031c-14.699219 0-26.667969 11.96875-26.667969 26.667969v352c0 14.699219 11.96875 26.664062 26.667969 26.664062h394.664062c14.699219 0 26.667969-11.964843 26.667969-26.664062v-352c0-14.699219-11.96875-26.667969-26.667969-26.667969zm0 0"/><path d="m496 117.332031h-480c-8.832031 0-16-7.167969-16-16s7.167969-16 16-16h480c8.832031 0 16 7.167969 16 16s-7.167969 16-16 16zm0 0"/></svg>