<svg id="Capa_1" enable-background="new 0 0 512 512" height="512" viewBox="0 0 512 512" width="512" xmlns="http://www.w3.org/2000/svg"><g><g id="Page-1_15_"><g id="_x30_16---CPU-Power"><path id="Shape_103_" d="m102.4 418.133h307.2c4.713 0 8.533-3.821 8.533-8.533v-307.2c0-4.713-3.821-8.533-8.533-8.533h-307.2c-4.713 0-8.533 3.821-8.533 8.533v307.2c0 4.713 3.82 8.533 8.533 8.533zm8.533-307.2h290.133v290.133h-290.133z"/><path id="Shape_102_" d="m25.6 358.4c-14.138 0-25.6 11.462-25.6 25.6s11.462 25.6 25.6 25.6h34.133c.028 23.552 19.114 42.638 42.667 42.667v34.133c0 14.138 11.462 25.6 25.6 25.6 14.139 0 25.6-11.461 25.6-25.6v-34.133h34.133v34.133c0 14.138 11.462 25.6 25.6 25.6s25.6-11.461 25.6-25.6v-34.133h34.133v34.133c0 14.138 11.462 25.6 25.6 25.6s25.6-11.461 25.6-25.6v-34.133h34.134v34.133c0 14.138 11.462 25.6 25.6 25.6s25.6-11.461 25.6-25.6v-34.133c23.552-.028 42.638-19.114 42.667-42.667h34.133c14.138 0 25.6-11.462 25.6-25.6s-11.461-25.6-25.6-25.6h-34.133v-34.133h34.133c14.138 0 25.6-11.462 25.6-25.6s-11.461-25.6-25.6-25.6h-34.133v-34.133h34.133c14.138 0 25.6-11.462 25.6-25.6s-11.461-25.6-25.6-25.6h-34.133v-34.134h34.133c14.138 0 25.6-11.462 25.6-25.6s-11.461-25.6-25.6-25.6h-34.133c-.028-23.552-19.114-42.638-42.667-42.667v-34.133c0-14.138-11.462-25.6-25.6-25.6s-25.6 11.462-25.6 25.6v34.133h-34.133v-34.133c0-14.138-11.462-25.6-25.6-25.6s-25.6 11.462-25.6 25.6v34.133h-34.133v-34.133c0-14.138-11.462-25.6-25.6-25.6s-25.6 11.462-25.6 25.6v34.133h-34.134v-34.133c0-14.138-11.461-25.6-25.6-25.6-14.138 0-25.6 11.462-25.6 25.6v34.133c-23.552.029-42.638 19.115-42.667 42.667h-34.133c-14.138 0-25.6 11.462-25.6 25.6 0 14.139 11.462 25.6 25.6 25.6h34.133v34.133h-34.133c-14.138 0-25.6 11.462-25.6 25.6s11.462 25.6 25.6 25.6h34.133v34.133h-34.133c-14.138 0-25.6 11.462-25.6 25.6s11.462 25.6 25.6 25.6h34.133v34.134zm0 34.133c-4.713 0-8.533-3.82-8.533-8.533s3.821-8.533 8.533-8.533h34.133v17.067h-34.133zm110.933 93.867c0 4.713-3.821 8.533-8.533 8.533-4.713 0-8.533-3.82-8.533-8.533v-34.133h17.067v34.133zm85.334 0c0 4.713-3.821 8.533-8.533 8.533s-8.533-3.82-8.533-8.533v-34.133h17.067v34.133zm85.333 0c0 4.713-3.82 8.533-8.533 8.533s-8.533-3.82-8.533-8.533v-34.133h17.066zm85.333 0c0 4.713-3.82 8.533-8.533 8.533s-8.533-3.82-8.533-8.533v-34.133h17.067v34.133zm93.867-110.933c4.713 0 8.533 3.821 8.533 8.533s-3.82 8.533-8.533 8.533h-34.133v-17.067h34.133zm0-85.334c4.713 0 8.533 3.82 8.533 8.533s-3.82 8.533-8.533 8.533h-34.133v-17.067h34.133zm0-85.333c4.713 0 8.533 3.82 8.533 8.533s-3.82 8.533-8.533 8.533h-34.133v-17.066zm0-85.333c4.713 0 8.533 3.821 8.533 8.533 0 4.713-3.82 8.533-8.533 8.533h-34.133v-17.067h34.133zm-110.933-93.867c0-4.713 3.821-8.533 8.533-8.533s8.533 3.821 8.533 8.533v34.133h-17.067v-34.133zm-85.334 0c0-4.713 3.82-8.533 8.533-8.533s8.533 3.821 8.533 8.533v34.133h-17.067v-34.133zm-85.333 0c0-4.713 3.82-8.533 8.533-8.533s8.533 3.821 8.533 8.533v34.133h-17.066zm-85.333 0c0-4.713 3.821-8.533 8.533-8.533 4.713 0 8.533 3.821 8.533 8.533v34.133h-17.067v-34.133zm-42.667 76.8c0-14.138 11.462-25.6 25.6-25.6h307.2c14.138 0 25.6 11.462 25.6 25.6v307.2c0 14.138-11.462 25.6-25.6 25.6h-307.2c-14.138 0-25.6-11.462-25.6-25.6zm-51.2 34.133c-4.713 0-8.533-3.821-8.533-8.533 0-4.713 3.821-8.533 8.533-8.533h34.133v17.067h-34.133zm0 85.334c-4.713 0-8.533-3.821-8.533-8.533s3.821-8.533 8.533-8.533h34.133v17.067h-34.133zm0 85.333c-4.713 0-8.533-3.82-8.533-8.533s3.821-8.533 8.533-8.533h34.133v17.066z"/><path id="Shape_101_" d="m162.133 128h-25.6c-4.713 0-8.533 3.821-8.533 8.533v25.6c0 4.713 3.821 8.533 8.533 8.533s8.533-3.821 8.533-8.533v-17.067h17.067c4.713 0 8.533-3.821 8.533-8.533s-3.82-8.533-8.533-8.533z"/><path id="Shape_100_" d="m324.267 230.4h-38.597l29.457-73.626c1.054-2.63.734-5.612-.855-7.959-1.589-2.346-4.239-3.751-7.072-3.749h-68.267c-3.444 0-6.55 2.07-7.876 5.248l-42.667 102.4c-1.099 2.634-.808 5.643.775 8.018s4.248 3.801 7.102 3.801h23.407l-23.194 100.48c-.871 3.764.896 7.644 4.308 9.458s7.616 1.109 10.25-1.718l119.467-128c2.317-2.484 2.939-6.106 1.585-9.221s-4.427-5.131-7.823-5.132zm-103.996 107.452 18.449-79.932c.585-2.535-.018-5.198-1.638-7.234s-4.08-3.221-6.682-3.219h-21.333l35.558-85.333h49.971l-29.457 73.626c-1.054 2.63-.734 5.612.855 7.959 1.589 2.346 4.239 3.751 7.072 3.749h31.573z"/></g></g></g></svg>