<?xml version="1.0" encoding="UTF-8" standalone="no"?>
<svg
   viewBox="-9500 -10000 21800 21400"
   version="1.1"
   id="svg10"
   sodipodi:docname="mechult.svg"
   inkscape:version="1.1 (c68e22c387, 2021-05-23)"
   xmlns:inkscape="http://www.inkscape.org/namespaces/inkscape"
   xmlns:sodipodi="http://sodipodi.sourceforge.net/DTD/sodipodi-0.dtd"
   xmlns="http://www.w3.org/2000/svg"
   xmlns:svg="http://www.w3.org/2000/svg">
  <defs
     id="defs14" />
  <sodipodi:namedview
     id="namedview12"
     pagecolor="#ffffff"
     bordercolor="#666666"
     borderopacity="1.0"
     inkscape:pageshadow="2"
     inkscape:pageopacity="0.0"
     inkscape:pagecheckerboard="0"
     showgrid="false"
     inkscape:zoom="0.035186916"
     inkscape:cx="10913.147"
     inkscape:cy="10685.79"
     inkscape:window-width="1920"
     inkscape:window-height="1058"
     inkscape:window-x="1912"
     inkscape:window-y="-8"
     inkscape:window-maximized="1"
     inkscape:current-layer="svg10" />
  <g
     id="_2653177105328"
     transform="translate(-30370.011,-76775.62)">
    <polygon
       class="fil0"
       points="29868.68,75368.03 30168.09,75540.71 30168.09,75840.12 30467.3,76012.8 30467.3,75713.59 30766.71,75886.47 30766.71,75587.06 30467.3,75414.17 30467.3,75114.97 30168.09,74942.08 30168.09,75241.5 29868.68,75068.62 "
       id="polygon2" />
    <path
       class="fil2"
       d="m 28137.45,71236.6 1629.05,-940.54 -1710.84,-987.76 1710.85,-987.77 -1629.05,-940.53 -1710.85,987.75 -1710.93,-987.8 -1629.07,940.53 1710.92,987.82 -1710.83,987.75 1629.04,940.55 1710.77,-987.72 z m 1751.86,-2939.63 v 1687.06 l 1710.84,987.76 v 1733.66 l -1711.02,987.87 -0.03,1686.52 -1751.74,1011.36 -1460.55,-843.26 -250.21,144.46 -250.28,-144.49 -1460.56,843.25 -1751.67,-1011.32 -0.02,-1686.52 -1711.02,-987.87 v -1733.62 l 1710.84,-987.79 v -1686.98 l 1751.95,-1011.47 1710.77,987.71 1710.85,-987.76 z m -82,1686.05 v -1591.61 l -1588.05,916.89 1369.49,790.68 z m -6761.42,-1591.6 v 1591.6 l 218.55,115.95 1369.5,-790.67 z m 8431.46,2603.92 -1629.88,-941.02 -175.13,92.92 216.96,125.26 v 1639.7 z m -8296.5,-848.11 -175.12,-92.91 -1629.87,941.02 1588.04,916.86 v -1639.71 z m 4915.75,6125.98 0.02,-1544.99 -1338.01,772.5 z m -1670,-2361.85 1629.06,-940.93 -1629.05,-940.53 -1629.06,940.54 z m 1670.01,-1011.74 0.01,-1592.23 -1629.19,-940.53 0.01,1592.16 z m -3340.02,3373.7 1338.1,-772.54 -1338.11,-772.56 z m -0.02,-4965.85 0.02,1592.16 1629.19,-940.61 -0.01,-1592.16 z"
       id="path4" />
  </g>
</svg>
